<?xml version="1.0" encoding="UTF-8"?>
<svg id="Layer_2" data-name="Layer 2" xmlns="http://www.w3.org/2000/svg" viewBox="0 0 157.84 161.83">
  <defs>
    <style>
      .cls-1 {
        fill: none;
        stroke: #fff;
        stroke-miterlimit: 10;
        stroke-width: 4px;
      }
    </style>
  </defs>
  <g id="Layer_1-2" data-name="Layer 1">
    <g>
      <g>
        <path class="cls-1" d="M49.44,63.97c-2.44,22.26-4.62,45.51-8.95,66.19-2.63,12.56-6.96,31.26-14.62,29.57"/>
        <path class="cls-1" d="M2,2.16s0,157.57,24.2,157.57"/>
      </g>
      <g>
        <path class="cls-1" d="M45.61,98.22c2.42-21.75,4.68-44.13,8.42-64.54,2.6-14.17,7.38-31.53,15.43-31.52"/>
        <path class="cls-1" d="M93.34,159.73s0-157.57-24.2-157.57"/>
      </g>
    </g>
    <g>
      <g>
        <path class="cls-1" d="M61.54,63.92c-2.44,22.26-4.62,45.51-8.95,66.19-2.63,12.56-6.96,31.26-14.62,29.57"/>
        <path class="cls-1" d="M14.1,2.11s0,157.57,24.2,157.57"/>
      </g>
      <g>
        <path class="cls-1" d="M57.71,98.17c2.42-21.75,4.68-44.13,8.42-64.54,2.6-14.17,7.38-31.53,15.43-31.52"/>
        <path class="cls-1" d="M105.44,159.67s0-157.57-24.2-157.57"/>
      </g>
    </g>
    <g>
      <g>
        <path class="cls-1" d="M73.64,63.86c-2.44,22.26-4.62,45.51-8.95,66.19-2.63,12.56-6.96,31.26-14.62,29.57"/>
        <path class="cls-1" d="M26.2,2.05s0,157.57,24.2,157.57"/>
      </g>
      <g>
        <path class="cls-1" d="M69.81,98.12c2.42-21.75,4.68-44.13,8.42-64.54,2.6-14.17,7.38-31.53,15.43-31.52"/>
        <path class="cls-1" d="M117.54,159.62s0-157.57-24.2-157.57"/>
      </g>
    </g>
    <g>
      <g>
        <path class="cls-1" d="M85.74,63.81c-2.44,22.26-4.62,45.51-8.95,66.19-2.63,12.56-6.96,31.26-14.62,29.57"/>
        <path class="cls-1" d="M38.3,2s0,157.57,24.2,157.57"/>
      </g>
      <g>
        <path class="cls-1" d="M81.91,98.06c2.42-21.75,4.68-44.13,8.42-64.54,2.6-14.17,7.38-31.53,15.43-31.52"/>
        <path class="cls-1" d="M129.64,159.57s0-157.57-24.2-157.57"/>
      </g>
    </g>
    <g>
      <g>
        <path class="cls-1" d="M98.89,63.81c-2.44,22.26-4.62,45.51-8.95,66.19-2.63,12.56-6.96,31.26-14.62,29.57"/>
        <path class="cls-1" d="M51.44,2s0,157.57,24.2,157.57"/>
      </g>
      <g>
        <path class="cls-1" d="M95.06,98.06c2.42-21.75,4.68-44.13,8.42-64.54,2.6-14.17,7.38-31.53,15.43-31.52"/>
        <path class="cls-1" d="M142.79,159.57s0-157.57-24.2-157.57"/>
      </g>
    </g>
    <g>
      <g>
        <path class="cls-1" d="M111.94,63.81c-2.44,22.26-4.62,45.51-8.95,66.19-2.63,12.56-6.96,31.26-14.62,29.57"/>
        <path class="cls-1" d="M64.49,2s0,157.57,24.2,157.57"/>
      </g>
      <g>
        <path class="cls-1" d="M108.11,98.06c2.42-21.75,4.68-44.13,8.42-64.54,2.6-14.17,7.38-31.53,15.43-31.52"/>
        <path class="cls-1" d="M155.84,159.57s0-157.57-24.2-157.57"/>
      </g>
    </g>
  </g>
</svg>